<svg xmlns="http://www.w3.org/2000/svg" xmlns:xlink="http://www.w3.org/1999/xlink" width="529.171" height="354.262" version="1.1" viewBox="0 0 396.878 265.696"><defs><style type="text/css">*{stroke-linecap:butt;stroke-linejoin:round}</style></defs><g id="figure_1"><g id="patch_1"><path d="M 0 265.69625 L 396.878125 265.69625 L 396.878125 0 L 0 0 z" style="fill:none"/></g><g id="axes_1"><g id="patch_2"><path d="M 51.378125 228.14 L 386.178125 228.14 L 386.178125 10.7 L 51.378125 10.7 z" style="fill:#fff"/></g><g id="matplotlib.axis_1"><g id="xtick_1"><g id="line2d_1"><defs><path id="m50cd1064d3" d="M 0 0 L 0 3.5" style="stroke:#000;stroke-width:.8"/></defs><g><use style="stroke:#000;stroke-width:.8" x="90.625" y="228.14" xlink:href="#m50cd1064d3"/></g></g><g id="text_1"><defs><path id="DejaVuSans-53" d="M 10.796875 72.90625 L 49.515625 72.90625 L 49.515625 64.59375 L 19.828125 64.59375 L 19.828125 46.734375 Q 21.96875 47.46875 24.109375 47.828125 Q 26.265625 48.1875 28.421875 48.1875 Q 40.625 48.1875 47.75 41.5 Q 54.890625 34.8125 54.890625 23.390625 Q 54.890625 11.625 47.5625 5.09375 Q 40.234375 -1.421875 26.90625 -1.421875 Q 22.3125 -1.421875 17.546875 -0.640625 Q 12.796875 0.140625 7.71875 1.703125 L 7.71875 11.625 Q 12.109375 9.234375 16.796875 8.0625 Q 21.484375 6.890625 26.703125 6.890625 Q 35.15625 6.890625 40.078125 11.328125 Q 45.015625 15.765625 45.015625 23.390625 Q 45.015625 31 40.078125 35.4375 Q 35.15625 39.890625 26.703125 39.890625 Q 22.75 39.890625 18.8125 39.015625 Q 14.890625 38.140625 10.796875 36.28125 z"/></defs><g transform="translate(87.443765 242.738437)scale(0.1 -0.1)"><use xlink:href="#DejaVuSans-53"/></g></g></g><g id="xtick_2"><g id="line2d_2"><g><use style="stroke:#000;stroke-width:.8" x="130.673" y="228.14" xlink:href="#m50cd1064d3"/></g></g><g id="text_2"><defs><path id="DejaVuSans-49" d="M 12.40625 8.296875 L 28.515625 8.296875 L 28.515625 63.921875 L 10.984375 60.40625 L 10.984375 69.390625 L 28.421875 72.90625 L 38.28125 72.90625 L 38.28125 8.296875 L 54.390625 8.296875 L 54.390625 0 L 12.40625 0 z"/><path id="DejaVuSans-48" d="M 31.78125 66.40625 Q 24.171875 66.40625 20.328125 58.90625 Q 16.5 51.421875 16.5 36.375 Q 16.5 21.390625 20.328125 13.890625 Q 24.171875 6.390625 31.78125 6.390625 Q 39.453125 6.390625 43.28125 13.890625 Q 47.125 21.390625 47.125 36.375 Q 47.125 51.421875 43.28125 58.90625 Q 39.453125 66.40625 31.78125 66.40625 z M 31.78125 74.21875 Q 44.046875 74.21875 50.515625 64.515625 Q 56.984375 54.828125 56.984375 36.375 Q 56.984375 17.96875 50.515625 8.265625 Q 44.046875 -1.421875 31.78125 -1.421875 Q 19.53125 -1.421875 13.0625 8.265625 Q 6.59375 17.96875 6.59375 36.375 Q 6.59375 54.828125 13.0625 64.515625 Q 19.53125 74.21875 31.78125 74.21875 z"/></defs><g transform="translate(124.310362 242.738437)scale(0.1 -0.1)"><use xlink:href="#DejaVuSans-49"/><use x="63.623" xlink:href="#DejaVuSans-48"/></g></g></g><g id="xtick_3"><g id="line2d_3"><g><use style="stroke:#000;stroke-width:.8" x="170.721" y="228.14" xlink:href="#m50cd1064d3"/></g></g><g id="text_3"><g transform="translate(164.358209 242.738437)scale(0.1 -0.1)"><use xlink:href="#DejaVuSans-49"/><use x="63.623" xlink:href="#DejaVuSans-53"/></g></g></g><g id="xtick_4"><g id="line2d_4"><g><use style="stroke:#000;stroke-width:.8" x="210.769" y="228.14" xlink:href="#m50cd1064d3"/></g></g><g id="text_4"><defs><path id="DejaVuSans-50" d="M 19.1875 8.296875 L 53.609375 8.296875 L 53.609375 0 L 7.328125 0 L 7.328125 8.296875 Q 12.9375 14.109375 22.625 23.890625 Q 32.328125 33.6875 34.8125 36.53125 Q 39.546875 41.84375 41.421875 45.53125 Q 43.3125 49.21875 43.3125 52.78125 Q 43.3125 58.59375 39.234375 62.25 Q 35.15625 65.921875 28.609375 65.921875 Q 23.96875 65.921875 18.8125 64.3125 Q 13.671875 62.703125 7.8125 59.421875 L 7.8125 69.390625 Q 13.765625 71.78125 18.9375 73 Q 24.125 74.21875 28.421875 74.21875 Q 39.75 74.21875 46.484375 68.546875 Q 53.21875 62.890625 53.21875 53.421875 Q 53.21875 48.921875 51.53125 44.890625 Q 49.859375 40.875 45.40625 35.40625 Q 44.1875 33.984375 37.640625 27.21875 Q 31.109375 20.453125 19.1875 8.296875 z"/></defs><g transform="translate(204.406056 242.738437)scale(0.1 -0.1)"><use xlink:href="#DejaVuSans-50"/><use x="63.623" xlink:href="#DejaVuSans-48"/></g></g></g><g id="xtick_5"><g id="line2d_5"><g><use style="stroke:#000;stroke-width:.8" x="250.816" y="228.14" xlink:href="#m50cd1064d3"/></g></g><g id="text_5"><g transform="translate(244.453903 242.738437)scale(0.1 -0.1)"><use xlink:href="#DejaVuSans-50"/><use x="63.623" xlink:href="#DejaVuSans-53"/></g></g></g><g id="xtick_6"><g id="line2d_6"><g><use style="stroke:#000;stroke-width:.8" x="290.864" y="228.14" xlink:href="#m50cd1064d3"/></g></g><g id="text_6"><defs><path id="DejaVuSans-51" d="M 40.578125 39.3125 Q 47.65625 37.796875 51.625 33 Q 55.609375 28.21875 55.609375 21.1875 Q 55.609375 10.40625 48.1875 4.484375 Q 40.765625 -1.421875 27.09375 -1.421875 Q 22.515625 -1.421875 17.65625 -0.515625 Q 12.796875 0.390625 7.625 2.203125 L 7.625 11.71875 Q 11.71875 9.328125 16.59375 8.109375 Q 21.484375 6.890625 26.8125 6.890625 Q 36.078125 6.890625 40.9375 10.546875 Q 45.796875 14.203125 45.796875 21.1875 Q 45.796875 27.640625 41.28125 31.265625 Q 36.765625 34.90625 28.71875 34.90625 L 20.21875 34.90625 L 20.21875 43.015625 L 29.109375 43.015625 Q 36.375 43.015625 40.234375 45.921875 Q 44.09375 48.828125 44.09375 54.296875 Q 44.09375 59.90625 40.109375 62.90625 Q 36.140625 65.921875 28.71875 65.921875 Q 24.65625 65.921875 20.015625 65.03125 Q 15.375 64.15625 9.8125 62.3125 L 9.8125 71.09375 Q 15.4375 72.65625 20.34375 73.4375 Q 25.25 74.21875 29.59375 74.21875 Q 40.828125 74.21875 47.359375 69.109375 Q 53.90625 64.015625 53.90625 55.328125 Q 53.90625 49.265625 50.4375 45.09375 Q 46.96875 40.921875 40.578125 39.3125 z"/></defs><g transform="translate(284.501749 242.738437)scale(0.1 -0.1)"><use xlink:href="#DejaVuSans-51"/><use x="63.623" xlink:href="#DejaVuSans-48"/></g></g></g><g id="xtick_7"><g id="line2d_7"><g><use style="stroke:#000;stroke-width:.8" x="330.912" y="228.14" xlink:href="#m50cd1064d3"/></g></g><g id="text_7"><g transform="translate(324.549596 242.738437)scale(0.1 -0.1)"><use xlink:href="#DejaVuSans-51"/><use x="63.623" xlink:href="#DejaVuSans-53"/></g></g></g><g id="xtick_8"><g id="line2d_8"><g><use style="stroke:#000;stroke-width:.8" x="370.96" y="228.14" xlink:href="#m50cd1064d3"/></g></g><g id="text_8"><defs><path id="DejaVuSans-52" d="M 37.796875 64.3125 L 12.890625 25.390625 L 37.796875 25.390625 z M 35.203125 72.90625 L 47.609375 72.90625 L 47.609375 25.390625 L 58.015625 25.390625 L 58.015625 17.1875 L 47.609375 17.1875 L 47.609375 0 L 37.796875 0 L 37.796875 17.1875 L 4.890625 17.1875 L 4.890625 26.703125 z"/></defs><g transform="translate(364.597443 242.738437)scale(0.1 -0.1)"><use xlink:href="#DejaVuSans-52"/><use x="63.623" xlink:href="#DejaVuSans-48"/></g></g></g><g id="text_9"><defs><path id="DejaVuSans-77" d="M 9.8125 72.90625 L 24.515625 72.90625 L 43.109375 23.296875 L 61.8125 72.90625 L 76.515625 72.90625 L 76.515625 0 L 66.890625 0 L 66.890625 64.015625 L 48.09375 14.015625 L 38.1875 14.015625 L 19.390625 64.015625 L 19.390625 0 L 9.8125 0 z"/><path id="DejaVuSans-97" d="M 34.28125 27.484375 Q 23.390625 27.484375 19.1875 25 Q 14.984375 22.515625 14.984375 16.5 Q 14.984375 11.71875 18.140625 8.90625 Q 21.296875 6.109375 26.703125 6.109375 Q 34.1875 6.109375 38.703125 11.40625 Q 43.21875 16.703125 43.21875 25.484375 L 43.21875 27.484375 z M 52.203125 31.203125 L 52.203125 0 L 43.21875 0 L 43.21875 8.296875 Q 40.140625 3.328125 35.546875 0.953125 Q 30.953125 -1.421875 24.3125 -1.421875 Q 15.921875 -1.421875 10.953125 3.296875 Q 6 8.015625 6 15.921875 Q 6 25.140625 12.171875 29.828125 Q 18.359375 34.515625 30.609375 34.515625 L 43.21875 34.515625 L 43.21875 35.40625 Q 43.21875 41.609375 39.140625 45 Q 35.0625 48.390625 27.6875 48.390625 Q 23 48.390625 18.546875 47.265625 Q 14.109375 46.140625 10.015625 43.890625 L 10.015625 52.203125 Q 14.9375 54.109375 19.578125 55.046875 Q 24.21875 56 28.609375 56 Q 40.484375 56 46.34375 49.84375 Q 52.203125 43.703125 52.203125 31.203125 z"/><path id="DejaVuSans-116" d="M 18.3125 70.21875 L 18.3125 54.6875 L 36.8125 54.6875 L 36.8125 47.703125 L 18.3125 47.703125 L 18.3125 18.015625 Q 18.3125 11.328125 20.140625 9.421875 Q 21.96875 7.515625 27.59375 7.515625 L 36.8125 7.515625 L 36.8125 0 L 27.59375 0 Q 17.1875 0 13.234375 3.875 Q 9.28125 7.765625 9.28125 18.015625 L 9.28125 47.703125 L 2.6875 47.703125 L 2.6875 54.6875 L 9.28125 54.6875 L 9.28125 70.21875 z"/><path id="DejaVuSans-114" d="M 41.109375 46.296875 Q 39.59375 47.171875 37.8125 47.578125 Q 36.03125 48 33.890625 48 Q 26.265625 48 22.1875 43.046875 Q 18.109375 38.09375 18.109375 28.8125 L 18.109375 0 L 9.078125 0 L 9.078125 54.6875 L 18.109375 54.6875 L 18.109375 46.1875 Q 20.953125 51.171875 25.484375 53.578125 Q 30.03125 56 36.53125 56 Q 37.453125 56 38.578125 55.875 Q 39.703125 55.765625 41.0625 55.515625 z"/><path id="DejaVuSans-105" d="M 9.421875 54.6875 L 18.40625 54.6875 L 18.40625 0 L 9.421875 0 z M 9.421875 75.984375 L 18.40625 75.984375 L 18.40625 64.59375 L 9.421875 64.59375 z"/><path id="DejaVuSans-120" d="M 54.890625 54.6875 L 35.109375 28.078125 L 55.90625 0 L 45.3125 0 L 29.390625 21.484375 L 13.484375 0 L 2.875 0 L 24.125 28.609375 L 4.6875 54.6875 L 15.28125 54.6875 L 29.78125 35.203125 L 44.28125 54.6875 z"/><path id="DejaVuSans-32"/><path id="DejaVuSans-115" d="M 44.28125 53.078125 L 44.28125 44.578125 Q 40.484375 46.53125 36.375 47.5 Q 32.28125 48.484375 27.875 48.484375 Q 21.1875 48.484375 17.84375 46.4375 Q 14.5 44.390625 14.5 40.28125 Q 14.5 37.15625 16.890625 35.375 Q 19.28125 33.59375 26.515625 31.984375 L 29.59375 31.296875 Q 39.15625 29.25 43.1875 25.515625 Q 47.21875 21.78125 47.21875 15.09375 Q 47.21875 7.46875 41.1875 3.015625 Q 35.15625 -1.421875 24.609375 -1.421875 Q 20.21875 -1.421875 15.453125 -0.5625 Q 10.6875 0.296875 5.421875 2 L 5.421875 11.28125 Q 10.40625 8.6875 15.234375 7.390625 Q 20.0625 6.109375 24.8125 6.109375 Q 31.15625 6.109375 34.5625 8.28125 Q 37.984375 10.453125 37.984375 14.40625 Q 37.984375 18.0625 35.515625 20.015625 Q 33.0625 21.96875 24.703125 23.78125 L 21.578125 24.515625 Q 13.234375 26.265625 9.515625 29.90625 Q 5.8125 33.546875 5.8125 39.890625 Q 5.8125 47.609375 11.28125 51.796875 Q 16.75 56 26.8125 56 Q 31.78125 56 36.171875 55.265625 Q 40.578125 54.546875 44.28125 53.078125 z"/><path id="DejaVuSans-122" d="M 5.515625 54.6875 L 48.1875 54.6875 L 48.1875 46.484375 L 14.40625 7.171875 L 48.1875 7.171875 L 48.1875 0 L 4.296875 0 L 4.296875 8.203125 L 38.09375 47.515625 L 5.515625 47.515625 z"/><path id="DejaVuSans-101" d="M 56.203125 29.59375 L 56.203125 25.203125 L 14.890625 25.203125 Q 15.484375 15.921875 20.484375 11.0625 Q 25.484375 6.203125 34.421875 6.203125 Q 39.59375 6.203125 44.453125 7.46875 Q 49.3125 8.734375 54.109375 11.28125 L 54.109375 2.78125 Q 49.265625 0.734375 44.1875 -0.34375 Q 39.109375 -1.421875 33.890625 -1.421875 Q 20.796875 -1.421875 13.15625 6.1875 Q 5.515625 13.8125 5.515625 26.8125 Q 5.515625 40.234375 12.765625 48.109375 Q 20.015625 56 32.328125 56 Q 43.359375 56 49.78125 48.890625 Q 56.203125 41.796875 56.203125 29.59375 z M 47.21875 32.234375 Q 47.125 39.59375 43.09375 43.984375 Q 39.0625 48.390625 32.421875 48.390625 Q 24.90625 48.390625 20.390625 44.140625 Q 15.875 39.890625 15.1875 32.171875 z"/><path id="DejaVuSans-Oblique-110" d="M 55.71875 33.015625 L 49.3125 0 L 40.28125 0 L 46.6875 32.671875 Q 47.125 34.96875 47.359375 36.71875 Q 47.609375 38.484375 47.609375 39.5 Q 47.609375 43.609375 45.015625 45.890625 Q 42.4375 48.1875 37.796875 48.1875 Q 30.5625 48.1875 25.34375 43.375 Q 20.125 38.578125 18.5 30.328125 L 12.5 0 L 3.515625 0 L 14.109375 54.6875 L 23.09375 54.6875 L 21.296875 46.09375 Q 25.046875 50.828125 30.3125 53.40625 Q 35.59375 56 41.40625 56 Q 48.640625 56 52.609375 52.09375 Q 56.59375 48.1875 56.59375 41.109375 Q 56.59375 39.359375 56.375 37.359375 Q 56.15625 35.359375 55.71875 33.015625 z"/></defs><g transform="translate(186.978125 256.416562)scale(0.1 -0.1)"><use transform="translate(0 0.015625)" xlink:href="#DejaVuSans-77"/><use transform="translate(86.279297 0.015625)" xlink:href="#DejaVuSans-97"/><use transform="translate(147.558594 0.015625)" xlink:href="#DejaVuSans-116"/><use transform="translate(186.767578 0.015625)" xlink:href="#DejaVuSans-114"/><use transform="translate(227.880859 0.015625)" xlink:href="#DejaVuSans-105"/><use transform="translate(255.664062 0.015625)" xlink:href="#DejaVuSans-120"/><use transform="translate(314.84375 0.015625)" xlink:href="#DejaVuSans-32"/><use transform="translate(346.630859 0.015625)" xlink:href="#DejaVuSans-115"/><use transform="translate(398.730469 0.015625)" xlink:href="#DejaVuSans-105"/><use transform="translate(426.513672 0.015625)" xlink:href="#DejaVuSans-122"/><use transform="translate(479.003906 0.015625)" xlink:href="#DejaVuSans-101"/><use transform="translate(540.527344 0.015625)" xlink:href="#DejaVuSans-32"/><use transform="translate(572.314453 0.015625)" xlink:href="#DejaVuSans-Oblique-110"/></g></g></g><g id="matplotlib.axis_2"><g id="ytick_1"><g id="line2d_9"><defs><path id="m3d6b20b700" d="M 0 0 L -3.5 0" style="stroke:#000;stroke-width:.8"/></defs><g><use style="stroke:#000;stroke-width:.8" x="51.378" y="192.351" xlink:href="#m3d6b20b700"/></g></g><g id="text_10"><defs><path id="DejaVuSans-8722" d="M 10.59375 35.5 L 73.1875 35.5 L 73.1875 27.203125 L 10.59375 27.203125 z"/></defs><g transform="translate(20.878125 196.150544)scale(0.1 -0.1)"><use transform="translate(0 0.765625)" xlink:href="#DejaVuSans-49"/><use transform="translate(63.623047 0.765625)" xlink:href="#DejaVuSans-48"/><use transform="translate(128.203125 39.046875)scale(0.7)" xlink:href="#DejaVuSans-8722"/><use transform="translate(186.855469 39.046875)scale(0.7)" xlink:href="#DejaVuSans-51"/></g></g></g><g id="ytick_2"><g id="line2d_10"><g><use style="stroke:#000;stroke-width:.8" x="51.378" y="155.141" xlink:href="#m3d6b20b700"/></g></g><g id="text_11"><g transform="translate(20.878125 158.940155)scale(0.1 -0.1)"><use transform="translate(0 0.765625)" xlink:href="#DejaVuSans-49"/><use transform="translate(63.623047 0.765625)" xlink:href="#DejaVuSans-48"/><use transform="translate(128.203125 39.046875)scale(0.7)" xlink:href="#DejaVuSans-8722"/><use transform="translate(186.855469 39.046875)scale(0.7)" xlink:href="#DejaVuSans-50"/></g></g></g><g id="ytick_3"><g id="line2d_11"><g><use style="stroke:#000;stroke-width:.8" x="51.378" y="117.931" xlink:href="#m3d6b20b700"/></g></g><g id="text_12"><g transform="translate(20.878125 121.729767)scale(0.1 -0.1)"><use transform="translate(0 0.684375)" xlink:href="#DejaVuSans-49"/><use transform="translate(63.623047 0.684375)" xlink:href="#DejaVuSans-48"/><use transform="translate(128.203125 38.965625)scale(0.7)" xlink:href="#DejaVuSans-8722"/><use transform="translate(186.855469 38.965625)scale(0.7)" xlink:href="#DejaVuSans-49"/></g></g></g><g id="ytick_4"><g id="line2d_12"><g><use style="stroke:#000;stroke-width:.8" x="51.378" y="80.72" xlink:href="#m3d6b20b700"/></g></g><g id="text_13"><g transform="translate(26.778125 84.519379)scale(0.1 -0.1)"><use transform="translate(0 0.765625)" xlink:href="#DejaVuSans-49"/><use transform="translate(63.623047 0.765625)" xlink:href="#DejaVuSans-48"/><use transform="translate(128.203125 39.046875)scale(0.7)" xlink:href="#DejaVuSans-48"/></g></g></g><g id="ytick_5"><g id="line2d_13"><g><use style="stroke:#000;stroke-width:.8" x="51.378" y="43.51" xlink:href="#m3d6b20b700"/></g></g><g id="text_14"><g transform="translate(26.778125 47.30899)scale(0.1 -0.1)"><use transform="translate(0 0.684375)" xlink:href="#DejaVuSans-49"/><use transform="translate(63.623047 0.684375)" xlink:href="#DejaVuSans-48"/><use transform="translate(128.203125 38.965625)scale(0.7)" xlink:href="#DejaVuSans-49"/></g></g></g><g id="ytick_6"><g id="line2d_14"><defs><path id="m6e84542108" d="M 0 0 L -2 0" style="stroke:#000;stroke-width:.6"/></defs><g><use style="stroke:#000;stroke-width:.6" x="51.378" y="218.36" xlink:href="#m6e84542108"/></g></g></g><g id="ytick_7"><g id="line2d_15"><g><use style="stroke:#000;stroke-width:.6" x="51.378" y="211.808" xlink:href="#m6e84542108"/></g></g></g><g id="ytick_8"><g id="line2d_16"><g><use style="stroke:#000;stroke-width:.6" x="51.378" y="207.159" xlink:href="#m6e84542108"/></g></g></g><g id="ytick_9"><g id="line2d_17"><g><use style="stroke:#000;stroke-width:.6" x="51.378" y="203.553" xlink:href="#m6e84542108"/></g></g></g><g id="ytick_10"><g id="line2d_18"><g><use style="stroke:#000;stroke-width:.6" x="51.378" y="200.606" xlink:href="#m6e84542108"/></g></g></g><g id="ytick_11"><g id="line2d_19"><g><use style="stroke:#000;stroke-width:.6" x="51.378" y="198.115" xlink:href="#m6e84542108"/></g></g></g><g id="ytick_12"><g id="line2d_20"><g><use style="stroke:#000;stroke-width:.6" x="51.378" y="195.957" xlink:href="#m6e84542108"/></g></g></g><g id="ytick_13"><g id="line2d_21"><g><use style="stroke:#000;stroke-width:.6" x="51.378" y="194.054" xlink:href="#m6e84542108"/></g></g></g><g id="ytick_14"><g id="line2d_22"><g><use style="stroke:#000;stroke-width:.6" x="51.378" y="181.15" xlink:href="#m6e84542108"/></g></g></g><g id="ytick_15"><g id="line2d_23"><g><use style="stroke:#000;stroke-width:.6" x="51.378" y="174.597" xlink:href="#m6e84542108"/></g></g></g><g id="ytick_16"><g id="line2d_24"><g><use style="stroke:#000;stroke-width:.6" x="51.378" y="169.948" xlink:href="#m6e84542108"/></g></g></g><g id="ytick_17"><g id="line2d_25"><g><use style="stroke:#000;stroke-width:.6" x="51.378" y="166.342" xlink:href="#m6e84542108"/></g></g></g><g id="ytick_18"><g id="line2d_26"><g><use style="stroke:#000;stroke-width:.6" x="51.378" y="163.396" xlink:href="#m6e84542108"/></g></g></g><g id="ytick_19"><g id="line2d_27"><g><use style="stroke:#000;stroke-width:.6" x="51.378" y="160.905" xlink:href="#m6e84542108"/></g></g></g><g id="ytick_20"><g id="line2d_28"><g><use style="stroke:#000;stroke-width:.6" x="51.378" y="158.747" xlink:href="#m6e84542108"/></g></g></g><g id="ytick_21"><g id="line2d_29"><g><use style="stroke:#000;stroke-width:.6" x="51.378" y="156.844" xlink:href="#m6e84542108"/></g></g></g><g id="ytick_22"><g id="line2d_30"><g><use style="stroke:#000;stroke-width:.6" x="51.378" y="143.939" xlink:href="#m6e84542108"/></g></g></g><g id="ytick_23"><g id="line2d_31"><g><use style="stroke:#000;stroke-width:.6" x="51.378" y="137.387" xlink:href="#m6e84542108"/></g></g></g><g id="ytick_24"><g id="line2d_32"><g><use style="stroke:#000;stroke-width:.6" x="51.378" y="132.738" xlink:href="#m6e84542108"/></g></g></g><g id="ytick_25"><g id="line2d_33"><g><use style="stroke:#000;stroke-width:.6" x="51.378" y="129.132" xlink:href="#m6e84542108"/></g></g></g><g id="ytick_26"><g id="line2d_34"><g><use style="stroke:#000;stroke-width:.6" x="51.378" y="126.186" xlink:href="#m6e84542108"/></g></g></g><g id="ytick_27"><g id="line2d_35"><g><use style="stroke:#000;stroke-width:.6" x="51.378" y="123.695" xlink:href="#m6e84542108"/></g></g></g><g id="ytick_28"><g id="line2d_36"><g><use style="stroke:#000;stroke-width:.6" x="51.378" y="121.537" xlink:href="#m6e84542108"/></g></g></g><g id="ytick_29"><g id="line2d_37"><g><use style="stroke:#000;stroke-width:.6" x="51.378" y="119.633" xlink:href="#m6e84542108"/></g></g></g><g id="ytick_30"><g id="line2d_38"><g><use style="stroke:#000;stroke-width:.6" x="51.378" y="106.729" xlink:href="#m6e84542108"/></g></g></g><g id="ytick_31"><g id="line2d_39"><g><use style="stroke:#000;stroke-width:.6" x="51.378" y="100.177" xlink:href="#m6e84542108"/></g></g></g><g id="ytick_32"><g id="line2d_40"><g><use style="stroke:#000;stroke-width:.6" x="51.378" y="95.528" xlink:href="#m6e84542108"/></g></g></g><g id="ytick_33"><g id="line2d_41"><g><use style="stroke:#000;stroke-width:.6" x="51.378" y="91.922" xlink:href="#m6e84542108"/></g></g></g><g id="ytick_34"><g id="line2d_42"><g><use style="stroke:#000;stroke-width:.6" x="51.378" y="88.975" xlink:href="#m6e84542108"/></g></g></g><g id="ytick_35"><g id="line2d_43"><g><use style="stroke:#000;stroke-width:.6" x="51.378" y="86.484" xlink:href="#m6e84542108"/></g></g></g><g id="ytick_36"><g id="line2d_44"><g><use style="stroke:#000;stroke-width:.6" x="51.378" y="84.326" xlink:href="#m6e84542108"/></g></g></g><g id="ytick_37"><g id="line2d_45"><g><use style="stroke:#000;stroke-width:.6" x="51.378" y="82.423" xlink:href="#m6e84542108"/></g></g></g><g id="ytick_38"><g id="line2d_46"><g><use style="stroke:#000;stroke-width:.6" x="51.378" y="69.519" xlink:href="#m6e84542108"/></g></g></g><g id="ytick_39"><g id="line2d_47"><g><use style="stroke:#000;stroke-width:.6" x="51.378" y="62.966" xlink:href="#m6e84542108"/></g></g></g><g id="ytick_40"><g id="line2d_48"><g><use style="stroke:#000;stroke-width:.6" x="51.378" y="58.317" xlink:href="#m6e84542108"/></g></g></g><g id="ytick_41"><g id="line2d_49"><g><use style="stroke:#000;stroke-width:.6" x="51.378" y="54.711" xlink:href="#m6e84542108"/></g></g></g><g id="ytick_42"><g id="line2d_50"><g><use style="stroke:#000;stroke-width:.6" x="51.378" y="51.765" xlink:href="#m6e84542108"/></g></g></g><g id="ytick_43"><g id="line2d_51"><g><use style="stroke:#000;stroke-width:.6" x="51.378" y="49.274" xlink:href="#m6e84542108"/></g></g></g><g id="ytick_44"><g id="line2d_52"><g><use style="stroke:#000;stroke-width:.6" x="51.378" y="47.116" xlink:href="#m6e84542108"/></g></g></g><g id="ytick_45"><g id="line2d_53"><g><use style="stroke:#000;stroke-width:.6" x="51.378" y="45.212" xlink:href="#m6e84542108"/></g></g></g><g id="ytick_46"><g id="line2d_54"><g><use style="stroke:#000;stroke-width:.6" x="51.378" y="32.308" xlink:href="#m6e84542108"/></g></g></g><g id="ytick_47"><g id="line2d_55"><g><use style="stroke:#000;stroke-width:.6" x="51.378" y="25.756" xlink:href="#m6e84542108"/></g></g></g><g id="ytick_48"><g id="line2d_56"><g><use style="stroke:#000;stroke-width:.6" x="51.378" y="21.107" xlink:href="#m6e84542108"/></g></g></g><g id="ytick_49"><g id="line2d_57"><g><use style="stroke:#000;stroke-width:.6" x="51.378" y="17.501" xlink:href="#m6e84542108"/></g></g></g><g id="ytick_50"><g id="line2d_58"><g><use style="stroke:#000;stroke-width:.6" x="51.378" y="14.554" xlink:href="#m6e84542108"/></g></g></g><g id="ytick_51"><g id="line2d_59"><g><use style="stroke:#000;stroke-width:.6" x="51.378" y="12.063" xlink:href="#m6e84542108"/></g></g></g><g id="text_15"><defs><path id="DejaVuSans-84" d="M -0.296875 72.90625 L 61.375 72.90625 L 61.375 64.59375 L 35.5 64.59375 L 35.5 0 L 25.59375 0 L 25.59375 64.59375 L -0.296875 64.59375 z"/><path id="DejaVuSans-109" d="M 52 44.1875 Q 55.375 50.25 60.0625 53.125 Q 64.75 56 71.09375 56 Q 79.640625 56 84.28125 50.015625 Q 88.921875 44.046875 88.921875 33.015625 L 88.921875 0 L 79.890625 0 L 79.890625 32.71875 Q 79.890625 40.578125 77.09375 44.375 Q 74.3125 48.1875 68.609375 48.1875 Q 61.625 48.1875 57.5625 43.546875 Q 53.515625 38.921875 53.515625 30.90625 L 53.515625 0 L 44.484375 0 L 44.484375 32.71875 Q 44.484375 40.625 41.703125 44.40625 Q 38.921875 48.1875 33.109375 48.1875 Q 26.21875 48.1875 22.15625 43.53125 Q 18.109375 38.875 18.109375 30.90625 L 18.109375 0 L 9.078125 0 L 9.078125 54.6875 L 18.109375 54.6875 L 18.109375 46.1875 Q 21.1875 51.21875 25.484375 53.609375 Q 29.78125 56 35.6875 56 Q 41.65625 56 45.828125 52.96875 Q 50 49.953125 52 44.1875 z"/><path id="DejaVuSans-110" d="M 54.890625 33.015625 L 54.890625 0 L 45.90625 0 L 45.90625 32.71875 Q 45.90625 40.484375 42.875 44.328125 Q 39.84375 48.1875 33.796875 48.1875 Q 26.515625 48.1875 22.3125 43.546875 Q 18.109375 38.921875 18.109375 30.90625 L 18.109375 0 L 9.078125 0 L 9.078125 54.6875 L 18.109375 54.6875 L 18.109375 46.1875 Q 21.34375 51.125 25.703125 53.5625 Q 30.078125 56 35.796875 56 Q 45.21875 56 50.046875 50.171875 Q 54.890625 44.34375 54.890625 33.015625 z"/><path id="DejaVuSans-99" d="M 48.78125 52.59375 L 48.78125 44.1875 Q 44.96875 46.296875 41.140625 47.34375 Q 37.3125 48.390625 33.40625 48.390625 Q 24.65625 48.390625 19.8125 42.84375 Q 14.984375 37.3125 14.984375 27.296875 Q 14.984375 17.28125 19.8125 11.734375 Q 24.65625 6.203125 33.40625 6.203125 Q 37.3125 6.203125 41.140625 7.25 Q 44.96875 8.296875 48.78125 10.40625 L 48.78125 2.09375 Q 45.015625 0.34375 40.984375 -0.53125 Q 36.96875 -1.421875 32.421875 -1.421875 Q 20.0625 -1.421875 12.78125 6.34375 Q 5.515625 14.109375 5.515625 27.296875 Q 5.515625 40.671875 12.859375 48.328125 Q 20.21875 56 33.015625 56 Q 37.15625 56 41.109375 55.140625 Q 45.0625 54.296875 48.78125 52.59375 z"/><path id="DejaVuSans-111" d="M 30.609375 48.390625 Q 23.390625 48.390625 19.1875 42.75 Q 14.984375 37.109375 14.984375 27.296875 Q 14.984375 17.484375 19.15625 11.84375 Q 23.34375 6.203125 30.609375 6.203125 Q 37.796875 6.203125 41.984375 11.859375 Q 46.1875 17.53125 46.1875 27.296875 Q 46.1875 37.015625 41.984375 42.703125 Q 37.796875 48.390625 30.609375 48.390625 z M 30.609375 56 Q 42.328125 56 49.015625 48.375 Q 55.71875 40.765625 55.71875 27.296875 Q 55.71875 13.875 49.015625 6.21875 Q 42.328125 -1.421875 30.609375 -1.421875 Q 18.84375 -1.421875 12.171875 6.21875 Q 5.515625 13.875 5.515625 27.296875 Q 5.515625 40.765625 12.171875 48.375 Q 18.84375 56 30.609375 56 z"/><path id="DejaVuSans-100" d="M 45.40625 46.390625 L 45.40625 75.984375 L 54.390625 75.984375 L 54.390625 0 L 45.40625 0 L 45.40625 8.203125 Q 42.578125 3.328125 38.25 0.953125 Q 33.9375 -1.421875 27.875 -1.421875 Q 17.96875 -1.421875 11.734375 6.484375 Q 5.515625 14.40625 5.515625 27.296875 Q 5.515625 40.1875 11.734375 48.09375 Q 17.96875 56 27.875 56 Q 33.9375 56 38.25 53.625 Q 42.578125 51.265625 45.40625 46.390625 z M 14.796875 27.296875 Q 14.796875 17.390625 18.875 11.75 Q 22.953125 6.109375 30.078125 6.109375 Q 37.203125 6.109375 41.296875 11.75 Q 45.40625 17.390625 45.40625 27.296875 Q 45.40625 37.203125 41.296875 42.84375 Q 37.203125 48.484375 30.078125 48.484375 Q 22.953125 48.484375 18.875 42.84375 Q 14.796875 37.203125 14.796875 27.296875 z"/><path id="DejaVuSans-102" d="M 37.109375 75.984375 L 37.109375 68.5 L 28.515625 68.5 Q 23.6875 68.5 21.796875 66.546875 Q 19.921875 64.59375 19.921875 59.515625 L 19.921875 54.6875 L 34.71875 54.6875 L 34.71875 47.703125 L 19.921875 47.703125 L 19.921875 0 L 10.890625 0 L 10.890625 47.703125 L 2.296875 47.703125 L 2.296875 54.6875 L 10.890625 54.6875 L 10.890625 58.5 Q 10.890625 67.625 15.140625 71.796875 Q 19.390625 75.984375 28.609375 75.984375 z"/><path id="DejaVuSans-104" d="M 54.890625 33.015625 L 54.890625 0 L 45.90625 0 L 45.90625 32.71875 Q 45.90625 40.484375 42.875 44.328125 Q 39.84375 48.1875 33.796875 48.1875 Q 26.515625 48.1875 22.3125 43.546875 Q 18.109375 38.921875 18.109375 30.90625 L 18.109375 0 L 9.078125 0 L 9.078125 75.984375 L 18.109375 75.984375 L 18.109375 46.1875 Q 21.34375 51.125 25.703125 53.5625 Q 30.078125 56 35.796875 56 Q 45.21875 56 50.046875 50.171875 Q 54.890625 44.34375 54.890625 33.015625 z"/></defs><g transform="translate(14.798438 193.906719)rotate(-90)scale(0.1 -0.1)"><use xlink:href="#DejaVuSans-84"/><use x="61.037" xlink:href="#DejaVuSans-105"/><use x="88.82" xlink:href="#DejaVuSans-109"/><use x="186.232" xlink:href="#DejaVuSans-101"/><use x="247.756" xlink:href="#DejaVuSans-32"/><use x="279.543" xlink:href="#DejaVuSans-105"/><use x="307.326" xlink:href="#DejaVuSans-110"/><use x="370.705" xlink:href="#DejaVuSans-32"/><use x="402.492" xlink:href="#DejaVuSans-115"/><use x="454.592" xlink:href="#DejaVuSans-101"/><use x="516.115" xlink:href="#DejaVuSans-99"/><use x="571.096" xlink:href="#DejaVuSans-111"/><use x="632.277" xlink:href="#DejaVuSans-110"/><use x="695.656" xlink:href="#DejaVuSans-100"/><use x="759.133" xlink:href="#DejaVuSans-115"/><use x="811.232" xlink:href="#DejaVuSans-32"/><use x="843.02" xlink:href="#DejaVuSans-102"/><use x="878.225" xlink:href="#DejaVuSans-111"/><use x="939.406" xlink:href="#DejaVuSans-114"/><use x="980.52" xlink:href="#DejaVuSans-32"/><use x="1012.307" xlink:href="#DejaVuSans-52"/><use x="1075.93" xlink:href="#DejaVuSans-32"/><use x="1107.717" xlink:href="#DejaVuSans-116"/><use x="1146.926" xlink:href="#DejaVuSans-104"/><use x="1210.305" xlink:href="#DejaVuSans-114"/><use x="1251.387" xlink:href="#DejaVuSans-101"/><use x="1312.91" xlink:href="#DejaVuSans-97"/><use x="1374.189" xlink:href="#DejaVuSans-100"/><use x="1437.666" xlink:href="#DejaVuSans-115"/></g></g></g><g id="line2d_60"><defs><path id="mffee4823af" d="M -3 0 L 3 0 M 0 3 L 0 -3" style="stroke:#1f77b4"/></defs><g clip-path="url(#pb554c0dca0)"><use style="fill:#1f77b4;stroke:#1f77b4" x="66.596" y="210.784" xlink:href="#mffee4823af"/><use style="fill:#1f77b4;stroke:#1f77b4" x="82.615" y="218.256" xlink:href="#mffee4823af"/><use style="fill:#1f77b4;stroke:#1f77b4" x="98.635" y="191.575" xlink:href="#mffee4823af"/><use style="fill:#1f77b4;stroke:#1f77b4" x="114.654" y="189.435" xlink:href="#mffee4823af"/><use style="fill:#1f77b4;stroke:#1f77b4" x="130.673" y="187.944" xlink:href="#mffee4823af"/><use style="fill:#1f77b4;stroke:#1f77b4" x="146.692" y="183.652" xlink:href="#mffee4823af"/><use style="fill:#1f77b4;stroke:#1f77b4" x="162.711" y="188.008" xlink:href="#mffee4823af"/><use style="fill:#1f77b4;stroke:#1f77b4" x="178.73" y="174.019" xlink:href="#mffee4823af"/><use style="fill:#1f77b4;stroke:#1f77b4" x="194.749" y="162.946" xlink:href="#mffee4823af"/><use style="fill:#1f77b4;stroke:#1f77b4" x="210.769" y="150.714" xlink:href="#mffee4823af"/><use style="fill:#1f77b4;stroke:#1f77b4" x="226.788" y="136.107" xlink:href="#mffee4823af"/><use style="fill:#1f77b4;stroke:#1f77b4" x="242.807" y="124.76" xlink:href="#mffee4823af"/><use style="fill:#1f77b4;stroke:#1f77b4" x="258.826" y="110.605" xlink:href="#mffee4823af"/><use style="fill:#1f77b4;stroke:#1f77b4" x="274.845" y="97.767" xlink:href="#mffee4823af"/><use style="fill:#1f77b4;stroke:#1f77b4" x="290.864" y="85.738" xlink:href="#mffee4823af"/><use style="fill:#1f77b4;stroke:#1f77b4" x="306.883" y="72.868" xlink:href="#mffee4823af"/><use style="fill:#1f77b4;stroke:#1f77b4" x="322.903" y="59.757" xlink:href="#mffee4823af"/><use style="fill:#1f77b4;stroke:#1f77b4" x="338.922" y="46.924" xlink:href="#mffee4823af"/><use style="fill:#1f77b4;stroke:#1f77b4" x="354.941" y="33.718" xlink:href="#mffee4823af"/><use style="fill:#1f77b4;stroke:#1f77b4" x="370.96" y="20.584" xlink:href="#mffee4823af"/></g></g><g id="patch_3"><path d="M 51.378125 228.14 L 51.378125 10.7" style="fill:none;stroke:#000;stroke-linecap:square;stroke-linejoin:miter;stroke-width:.8"/></g><g id="patch_4"><path d="M 386.178125 228.14 L 386.178125 10.7" style="fill:none;stroke:#000;stroke-linecap:square;stroke-linejoin:miter;stroke-width:.8"/></g><g id="patch_5"><path d="M 51.378125 228.14 L 386.178125 228.14" style="fill:none;stroke:#000;stroke-linecap:square;stroke-linejoin:miter;stroke-width:.8"/></g><g id="patch_6"><path d="M 51.378125 10.7 L 386.178125 10.7" style="fill:none;stroke:#000;stroke-linecap:square;stroke-linejoin:miter;stroke-width:.8"/></g></g></g><defs><clipPath id="pb554c0dca0"><rect width="334.8" height="217.44" x="51.378" y="10.7"/></clipPath></defs></svg>