<svg xmlns="http://www.w3.org/2000/svg" xmlns:svg="http://www.w3.org/2000/svg" id="svg2" width="142.221" height="33.896" version="1.2" viewBox="0 0 106.666 25.422"><metadata id="metadata9256"/><g id="g3951" transform="translate(6.093273,-6.1247087)"><g id="g3939" transform="translate(-13.051513,0.59325066)"><path id="path5798" d="m 11.73964,28.164413 c 0,-1.101562 -0.89063,-1.992188 -1.99219,-1.992188 -1.10156,0 -1.99219,0.890626 -1.99219,1.992188 0,1.101563 0.89063,1.992188 1.99219,1.992188 1.10156,0 1.99219,-0.890625 1.99219,-1.992188 z m 0,0" style="fill:none;stroke:#000;stroke-width:1.59404004;stroke-linecap:butt;stroke-linejoin:miter;stroke-miterlimit:10;stroke-opacity:1"/><path id="path5800" d="m 31.58339,8.320662 c 0,-1.101562 -0.89063,-1.992187 -1.99219,-1.992187 -1.10156,0 -1.99219,0.890625 -1.99219,1.992187 0,1.101563 0.89063,1.992188 1.99219,1.992188 1.10156,0 1.99219,-0.890625 1.99219,-1.992188 z m 0,0" style="fill:none;stroke:#000;stroke-width:1.59404004;stroke-linecap:butt;stroke-linejoin:miter;stroke-miterlimit:10;stroke-opacity:1"/><path id="path5802" d="m 11.73964,8.320662 c 0,-1.101562 -0.89063,-1.992187 -1.99219,-1.992187 -1.10156,0 -1.99219,0.890625 -1.99219,1.992187 0,1.101563 0.89063,1.992188 1.99219,1.992188 1.10156,0 1.99219,-0.890625 1.99219,-1.992188 z m 0,0" style="fill:none;stroke:#000;stroke-width:1.59404004;stroke-linecap:butt;stroke-linejoin:miter;stroke-miterlimit:10;stroke-opacity:1"/><path id="path5804" d="m 31.58339,28.164413 c 0,-1.101562 -0.89063,-1.992188 -1.99219,-1.992188 -1.10156,0 -1.99219,0.890626 -1.99219,1.992188 0,1.101563 0.89063,1.992188 1.99219,1.992188 1.10156,0 1.99219,-0.890625 1.99219,-1.992188 z m 0,0" style="fill:none;stroke:#000;stroke-width:1.59404004;stroke-linecap:butt;stroke-linejoin:miter;stroke-miterlimit:10;stroke-opacity:1"/><path id="path5806" d="M 11.72011,26.191757 26.91542,10.996444" style="fill:none;stroke:#7f7fff;stroke-width:1.59404004;stroke-linecap:butt;stroke-linejoin:miter;stroke-miterlimit:10;stroke-opacity:1"/><path id="path5808" d="m 9.74745,25.37535 0,-13.269531" style="fill:none;stroke:#000;stroke-width:.79701;stroke-linecap:butt;stroke-linejoin:miter;stroke-miterlimit:10;stroke-dasharray:2.98883,2.98883;stroke-opacity:1"/><path id="path5810" d="m 12.53651,28.164413 13.26954,0" style="fill:none;stroke:#000;stroke-width:.79701;stroke-linecap:butt;stroke-linejoin:miter;stroke-miterlimit:10;stroke-dasharray:2.98883,2.98883;stroke-opacity:1"/><path id="path5812" d="m 26.80214,8.320662 -13.26953,0" style="fill:none;stroke:#000;stroke-width:.79701;stroke-linecap:butt;stroke-linejoin:miter;stroke-miterlimit:10;stroke-dasharray:2.98883,2.98883;stroke-opacity:1"/><path id="path5814" d="m 29.5912,11.109725 0,13.269532" style="fill:none;stroke:#000;stroke-width:.79701;stroke-linecap:butt;stroke-linejoin:miter;stroke-miterlimit:10;stroke-dasharray:2.98883,2.98883;stroke-opacity:1"/><path id="path5816" d="M 11.72011,10.293319 26.91542,25.488632" style="fill:none;stroke:#7f7fff;stroke-width:1.59404004;stroke-linecap:butt;stroke-linejoin:miter;stroke-miterlimit:10;stroke-opacity:1"/></g><g id="g3927" transform="translate(-20.913058,0.59325066)"><path id="path5826" d="m 60.22402,28.164413 c 0,-1.101562 -0.89063,-1.992188 -1.99219,-1.992188 -1.10156,0 -1.99219,0.890626 -1.99219,1.992188 0,1.101563 0.89063,1.992188 1.99219,1.992188 1.10156,0 1.99219,-0.890625 1.99219,-1.992188 z m 0,0" style="fill:none;stroke:#000;stroke-width:1.59404004;stroke-linecap:butt;stroke-linejoin:miter;stroke-miterlimit:10;stroke-opacity:1"/><path id="path5828" d="m 80.06777,8.320662 c 0,-1.101562 -0.89454,-1.992187 -1.99219,-1.992187 -1.10156,0 -1.99219,0.890625 -1.99219,1.992187 0,1.101563 0.89063,1.992188 1.99219,1.992188 1.09765,0 1.99219,-0.890625 1.99219,-1.992188 z m 0,0" style="fill:none;stroke:#000;stroke-width:1.59404004;stroke-linecap:butt;stroke-linejoin:miter;stroke-miterlimit:10;stroke-opacity:1"/><path id="path5830" d="m 60.22402,8.320662 c 0,-1.101562 -0.89063,-1.992187 -1.99219,-1.992187 -1.10156,0 -1.99219,0.890625 -1.99219,1.992187 0,1.101563 0.89063,1.992188 1.99219,1.992188 1.10156,0 1.99219,-0.890625 1.99219,-1.992188 z m 0,0" style="fill:none;stroke:#000;stroke-width:1.59404004;stroke-linecap:butt;stroke-linejoin:miter;stroke-miterlimit:10;stroke-opacity:1"/><path id="path5832" d="m 80.06777,28.164413 c 0,-1.101562 -0.89454,-1.992188 -1.99219,-1.992188 -1.10156,0 -1.99219,0.890626 -1.99219,1.992188 0,1.101563 0.89063,1.992188 1.99219,1.992188 1.09765,0 1.99219,-0.890625 1.99219,-1.992188 z m 0,0" style="fill:none;stroke:#000;stroke-width:1.59404004;stroke-linecap:butt;stroke-linejoin:miter;stroke-miterlimit:10;stroke-opacity:1"/><path id="path5834" d="M 60.20448,26.191757 75.39589,10.996444" style="fill:none;stroke:#000;stroke-width:.79701;stroke-linecap:butt;stroke-linejoin:miter;stroke-miterlimit:10;stroke-dasharray:2.98883,2.98883;stroke-opacity:1"/><path id="path5836" d="m 58.23183,25.37535 0,-13.269531" style="fill:none;stroke:#7f7fff;stroke-width:1.59404004;stroke-linecap:butt;stroke-linejoin:miter;stroke-miterlimit:10;stroke-opacity:1"/><path id="path5838" d="m 61.02089,28.164413 13.26953,0" style="fill:none;stroke:#000;stroke-width:.79701;stroke-linecap:butt;stroke-linejoin:miter;stroke-miterlimit:10;stroke-dasharray:2.98883,2.98883;stroke-opacity:1"/><path id="path5840" d="m 75.28652,8.320662 -13.26954,0" style="fill:none;stroke:#000;stroke-width:.79701;stroke-linecap:butt;stroke-linejoin:miter;stroke-miterlimit:10;stroke-dasharray:2.98883,2.98883;stroke-opacity:1"/><path id="path5842" d="m 78.07558,11.109725 0,13.269532" style="fill:none;stroke:#7f7fff;stroke-width:1.59404004;stroke-linecap:butt;stroke-linejoin:miter;stroke-miterlimit:10;stroke-opacity:1"/><path id="path5844" d="M 60.20448,10.293319 75.3998,25.488632" style="fill:none;stroke:#000;stroke-width:.79701;stroke-linecap:butt;stroke-linejoin:miter;stroke-miterlimit:10;stroke-dasharray:2.98883,2.98883;stroke-opacity:1"/></g><g id="g3915" transform="translate(-28.772654,0.59325066)"><path id="path5854" d="m 108.70839,28.164413 c 0,-1.101562 -0.89453,-1.992188 -1.99219,-1.992188 -1.10156,0 -1.99218,0.890626 -1.99218,1.992188 0,1.101563 0.89062,1.992188 1.99218,1.992188 1.09766,0 1.99219,-0.890625 1.99219,-1.992188 z m 0,0" style="fill:none;stroke:#000;stroke-width:1.59404004;stroke-linecap:butt;stroke-linejoin:miter;stroke-miterlimit:10;stroke-opacity:1"/><path id="path5856" d="m 128.54824,8.320662 c 0,-1.101562 -0.89063,-1.992187 -1.99219,-1.992187 -1.09766,0 -1.99219,0.890625 -1.99219,1.992187 0,1.101563 0.89453,1.992188 1.99219,1.992188 1.10156,0 1.99219,-0.890625 1.99219,-1.992188 z m 0,0" style="fill:none;stroke:#000;stroke-width:1.59404004;stroke-linecap:butt;stroke-linejoin:miter;stroke-miterlimit:10;stroke-opacity:1"/><path id="path5858" d="m 108.70839,8.320662 c 0,-1.101562 -0.89453,-1.992187 -1.99219,-1.992187 -1.10156,0 -1.99218,0.890625 -1.99218,1.992187 0,1.101563 0.89062,1.992188 1.99218,1.992188 1.09766,0 1.99219,-0.890625 1.99219,-1.992188 z m 0,0" style="fill:none;stroke:#000;stroke-width:1.59404004;stroke-linecap:butt;stroke-linejoin:miter;stroke-miterlimit:10;stroke-opacity:1"/><path id="path5860" d="m 128.54824,28.164413 c 0,-1.101562 -0.89063,-1.992188 -1.99219,-1.992188 -1.09766,0 -1.99219,0.890626 -1.99219,1.992188 0,1.101563 0.89453,1.992188 1.99219,1.992188 1.10156,0 1.99219,-0.890625 1.99219,-1.992188 z m 0,0" style="fill:none;stroke:#000;stroke-width:1.59404004;stroke-linecap:butt;stroke-linejoin:miter;stroke-miterlimit:10;stroke-opacity:1"/><path id="path5862" d="M 108.68886,26.191757 123.88027,10.996444" style="fill:none;stroke:#000;stroke-width:.79701;stroke-linecap:butt;stroke-linejoin:miter;stroke-miterlimit:10;stroke-dasharray:2.98883,2.98883;stroke-opacity:1"/><path id="path5864" d="m 106.7162,25.37535 0,-13.269531" style="fill:none;stroke:#000;stroke-width:.79701;stroke-linecap:butt;stroke-linejoin:miter;stroke-miterlimit:10;stroke-dasharray:2.98883,2.98883;stroke-opacity:1"/><path id="path5866" d="m 109.50527,28.164413 13.26562,0" style="fill:none;stroke:#7f7fff;stroke-width:1.59404004;stroke-linecap:butt;stroke-linejoin:miter;stroke-miterlimit:10;stroke-opacity:1"/><path id="path5868" d="m 123.76699,8.320662 -13.26563,0" style="fill:none;stroke:#7f7fff;stroke-width:1.59404004;stroke-linecap:butt;stroke-linejoin:miter;stroke-miterlimit:10;stroke-opacity:1"/><path id="path5870" d="m 126.55605,11.109725 0,13.269532" style="fill:none;stroke:#000;stroke-width:.79701;stroke-linecap:butt;stroke-linejoin:miter;stroke-miterlimit:10;stroke-dasharray:2.98883,2.98883;stroke-opacity:1"/><path id="path5872" d="m 108.68886,10.293319 15.19141,15.195313" style="fill:none;stroke:#000;stroke-width:.79701;stroke-linecap:butt;stroke-linejoin:miter;stroke-miterlimit:10;stroke-dasharray:2.98883,2.98883;stroke-opacity:1"/></g></g></svg>